<?xml version="1.0" standalone="no"?><svg xmlns="http://www.w3.org/2000/svg" viewBox="0 0 1440 320"><path fill="#000b76" fill-opacity="1" d="M0,128L26.7,154.7C53.3,181,107,235,160,224C213.3,213,267,139,320,122.7C373.3,107,427,149,480,170.7C533.3,192,587,192,640,202.7C693.3,213,747,235,800,234.7C853.3,235,907,213,960,176C1013.3,139,1067,85,1120,74.7C1173.3,64,1227,96,1280,133.3C1333.3,171,1387,213,1413,234.7L1440,256L1440,0L1413.3,0C1386.7,0,1333,0,1280,0C1226.7,0,1173,0,1120,0C1066.7,0,1013,0,960,0C906.7,0,853,0,800,0C746.7,0,693,0,640,0C586.7,0,533,0,480,0C426.7,0,373,0,320,0C266.7,0,213,0,160,0C106.7,0,53,0,27,0L0,0Z"></path></svg>